<svg xmlns="http://www.w3.org/2000/svg" width="960" height="500"><g transform="translate(30, 20)"><g><g transform="translate(0, 420)" fill="none" font-size="10" font-family="sans-serif" text-anchor="middle"><path class="domain" stroke="#000" d="M0.5000,5V0.5000H910.5000V5"></path><g class="tick" opacity="1" transform="translate(0.5,0)"><line stroke="#000" y2="5"></line><text fill="#000" y="10" dy="0.71em">5,694</text></g><g class="tick" opacity="1" transform="translate(70.5,0)"><line stroke="#000" y2="5"></line><text fill="#000" y="10" dy="0.71em">5,696</text></g><g class="tick" opacity="1" transform="translate(140.5,0)"><line stroke="#000" y2="5"></line><text fill="#000" y="10" dy="0.71em">5,698</text></g><g class="tick" opacity="1" transform="translate(210.5,0)"><line stroke="#000" y2="5"></line><text fill="#000" y="10" dy="0.71em">5,700</text></g><g class="tick" opacity="1" transform="translate(280.5,0)"><line stroke="#000" y2="5"></line><text fill="#000" y="10" dy="0.71em">5,702</text></g><g class="tick" opacity="1" transform="translate(350.5,0)"><line stroke="#000" y2="5"></line><text fill="#000" y="10" dy="0.71em">5,704</text></g><g class="tick" opacity="1" transform="translate(420.5,0)"><line stroke="#000" y2="5"></line><text fill="#000" y="10" dy="0.71em">5,706</text></g><g class="tick" opacity="1" transform="translate(490.5,0)"><line stroke="#000" y2="5"></line><text fill="#000" y="10" dy="0.71em">5,708</text></g><g class="tick" opacity="1" transform="translate(560.5,0)"><line stroke="#000" y2="5"></line><text fill="#000" y="10" dy="0.71em">5,710</text></g><g class="tick" opacity="1" transform="translate(630.5,0)"><line stroke="#000" y2="5"></line><text fill="#000" y="10" dy="0.71em">5,712</text></g><g class="tick" opacity="1" transform="translate(700.5,0)"><line stroke="#000" y2="5"></line><text fill="#000" y="10" dy="0.71em">5,714</text></g><g class="tick" opacity="1" transform="translate(770.5,0)"><line stroke="#000" y2="5"></line><text fill="#000" y="10" dy="0.71em">5,716</text></g><g class="tick" opacity="1" transform="translate(840.5,0)"><line stroke="#000" y2="5"></line><text fill="#000" y="10" dy="0.71em">5,718</text></g><g class="tick" opacity="1" transform="translate(910.5,0)"><line stroke="#000" y2="5"></line><text fill="#000" y="10" dy="0.71em">5,720</text></g></g><g fill="none" font-size="10" font-family="sans-serif" text-anchor="end"><path class="domain" stroke="#000" d="M-5,420.5000H0.5000V0.5000H-5"></path><g class="tick" opacity="1" transform="translate(0,420.5)"><line stroke="#000" x2="-5"></line><text fill="#000" x="-10" dy="0.32em">2.0</text></g><g class="tick" opacity="1" transform="translate(0,368.5)"><line stroke="#000" x2="-5"></line><text fill="#000" x="-10" dy="0.32em">2.5</text></g><g class="tick" opacity="1" transform="translate(0,315.5)"><line stroke="#000" x2="-5"></line><text fill="#000" x="-10" dy="0.32em">3.0</text></g><g class="tick" opacity="1" transform="translate(0,263.5)"><line stroke="#000" x2="-5"></line><text fill="#000" x="-10" dy="0.32em">3.5</text></g><g class="tick" opacity="1" transform="translate(0,210.5)"><line stroke="#000" x2="-5"></line><text fill="#000" x="-10" dy="0.32em">4.0</text></g><g class="tick" opacity="1" transform="translate(0,158.5)"><line stroke="#000" x2="-5"></line><text fill="#000" x="-10" dy="0.32em">4.5</text></g><g class="tick" opacity="1" transform="translate(0,105.5)"><line stroke="#000" x2="-5"></line><text fill="#000" x="-10" dy="0.32em">5.0</text></g><g class="tick" opacity="1" transform="translate(0,53.5)"><line stroke="#000" x2="-5"></line><text fill="#000" x="-10" dy="0.32em">5.5</text></g><g class="tick" opacity="1" transform="translate(0,0.5)"><line stroke="#000" x2="-5"></line><text fill="#000" x="-10" dy="0.32em">6.0</text></g></g><g fill="none" stroke-width="1.5"><path stroke="steelblue" d="M0,105L5.8333,87.5000C11.6667,70,23.3333,35,35,17.5000C46.6667,0,58.3333,0,70,0C81.6667,0,93.3333,0,105,0C116.6667,0,128.3333,0,140,0C151.6667,0,163.3333,0,175,0C186.6667,0,198.3333,0,210,0C221.6667,0,233.3333,0,245,0C256.6667,0,268.3333,0,280,0C291.6667,0,303.3333,0,315,0C326.6667,0,338.3333,0,350,0C361.6667,0,373.3333,0,385,0C396.6667,0,408.3333,0,420,0C431.6667,0,443.3333,0,455,0C466.6667,0,478.3333,0,490,0C501.6667,0,513.3333,0,525,0C536.6667,0,548.3333,0,560,0C571.6667,0,583.3333,0,595,0C606.6667,0,618.3333,0,630,0C641.6667,0,653.3333,0,665,0C676.6667,0,688.3333,0,700,0C711.6667,0,723.3333,0,735,0C746.6667,0,758.3333,0,770,0C781.6667,0,793.3333,0,805,0C816.6667,0,828.3333,0,840,0C851.6667,0,863.3333,0,875,70C886.6667,140,898.3333,280,904.1667,350L910,420"></path></g></g></g></svg>